HIERARCHY
ROOT Hips
{
	OFFSET 0.000000 0.000000 0.000000
	CHANNELS 6 Xposition Yposition Zposition Zrotation Yrotation Xrotation 
	JOINT LHipJoint
	{
		OFFSET 0.000000 0.000000 0.000000
		CHANNELS 3 Zrotation Yrotation Xrotation
		JOINT LeftUpLeg
		{
			OFFSET 1.363060 -1.794630 0.839290
			CHANNELS 3 Zrotation Yrotation Xrotation
			JOINT LeftLeg
			{
				OFFSET 2.448110 -6.726130 0.000000
				CHANNELS 3 Zrotation Yrotation Xrotation
				JOINT LeftFoot
				{
					OFFSET 2.562200 -7.039590 0.000000
					CHANNELS 3 Zrotation Yrotation Xrotation
					JOINT LeftToeBase
					{
						OFFSET 0.157640 -0.433110 2.322550
						CHANNELS 3 Zrotation Yrotation Xrotation
						End Site
						{
							OFFSET 0.000000 0.000000 0.000000
						}
					}
				}
			}
		}
	}
	JOINT RHipJoint
	{
		OFFSET 0.000000 0.000000 0.000000
		CHANNELS 3 Zrotation Yrotation Xrotation
		JOINT RightUpLeg
		{
			OFFSET -1.305520 -1.794630 0.839290
			CHANNELS 3 Zrotation Yrotation Xrotation
			JOINT RightLeg
			{
				OFFSET -2.542530 -6.985550 0.000000
				CHANNELS 3 Zrotation Yrotation Xrotation
				JOINT RightFoot
				{
					OFFSET -2.568260 -7.056230 0.000000
					CHANNELS 3 Zrotation Yrotation Xrotation
					JOINT RightToeBase
					{
						OFFSET -0.164730 -0.452590 2.363150
						CHANNELS 3 Zrotation Yrotation Xrotation
						End Site
						{
							OFFSET 0.000000 0.000000 0.000000
						}
					}
				}
			}
		}
	}
	JOINT LowerBack
	{
		OFFSET 0.000000 0.000000 0.000000
		CHANNELS 3 Zrotation Yrotation Xrotation
		JOINT Spine
		{
			OFFSET 0.028270 2.035590 -0.193380
			CHANNELS 3 Zrotation Yrotation Xrotation
			JOINT Spine1
			{
				OFFSET 0.056720 2.048850 -0.042750
				CHANNELS 3 Zrotation Yrotation Xrotation
				JOINT Neck
				{
					OFFSET 0.000000 0.000000 0.000000
					CHANNELS 3 Zrotation Yrotation Xrotation
					JOINT Neck1
					{
						OFFSET -0.054170 1.746240 0.172020
						CHANNELS 3 Zrotation Yrotation Xrotation
						JOINT Head
						{
							OFFSET 0.104070 1.761360 -0.123970
							CHANNELS 3 Zrotation Yrotation Xrotation
							End Site
							{
								OFFSET 0.000000 0.000000 0.000000
							}
						}
					}
				}
				JOINT LeftShoulder
				{
					OFFSET 0.000000 0.000000 0.000000
					CHANNELS 3 Zrotation Yrotation Xrotation
					JOINT LeftArm
					{
						OFFSET 3.362410 1.200890 -0.311210
						CHANNELS 3 Zrotation Yrotation Xrotation
						JOINT LeftForeArm
						{
							OFFSET 4.983000 -0.000000 -0.000000
							CHANNELS 3 Zrotation Yrotation Xrotation
							JOINT LeftHand
							{
								OFFSET 3.483560 -0.000000 -0.000000
								CHANNELS 3 Zrotation Yrotation Xrotation
								JOINT LeftFingerBase
								{
									OFFSET 0.000000 0.000000 0.000000
									CHANNELS 3 Zrotation Yrotation Xrotation
									JOINT LeftHandIndex1
									{
										OFFSET 0.715260 -0.000000 -0.000000
										CHANNELS 3 Zrotation Yrotation Xrotation
										End Site
										{
											OFFSET 0.000000 0.000000 0.000000
										}
									}
								}
								JOINT LThumb
								{
									OFFSET 0.000000 0.000000 0.000000
									CHANNELS 3 Zrotation Yrotation Xrotation
									End Site
									{
										OFFSET 0.000000 0.000000 0.000000
									}
								}
							}
						}
					}
				}
				JOINT RightShoulder
				{
					OFFSET 0.000000 0.000000 0.000000
					CHANNELS 3 Zrotation Yrotation Xrotation
					JOINT RightArm
					{
						OFFSET -3.136600 1.374050 -0.404650
						CHANNELS 3 Zrotation Yrotation Xrotation
						JOINT RightForeArm
						{
							OFFSET -5.241900 -0.000000 -0.000000
							CHANNELS 3 Zrotation Yrotation Xrotation
							JOINT RightHand
							{
								OFFSET -3.444170 -0.000000 -0.000000
								CHANNELS 3 Zrotation Yrotation Xrotation
								JOINT RightFingerBase
								{
									OFFSET 0.000000 0.000000 0.000000
									CHANNELS 3 Zrotation Yrotation Xrotation
									JOINT RightHandIndex1
									{
										OFFSET -0.622530 -0.000000 -0.000000
										CHANNELS 3 Zrotation Yrotation Xrotation
										End Site
										{
											OFFSET 0.000000 0.000000 0.000000
										}
									}
								}
								JOINT RThumb
								{
									OFFSET 0.000000 0.000000 0.000000
									CHANNELS 3 Zrotation Yrotation Xrotation
									End Site
									{
										OFFSET 0.000000 0.000000 0.000000
									}
								}
							}
						}
					}
				}
			}
		}
	}
}
MOTION
Frames: 7
Frame Time: 0.008333
6.091802 14.849069 28.465616 -173.989167 33.384634 -171.078042 3.985286 -6.081106 -8.647697 -13.878383 -3.308808 -34.561767 0.500401 22.588586 79.356279 -6.788718 -2.248760 9.106962 0.202953 3.029254 -1.866910 8.929169 17.627355 -11.646886 -9.847139 -24.170947 -8.079827 -4.320237 -24.460272 45.222362 -5.669820 18.050580 -25.966409 27.807489 -8.405334 -30.595825 -13.128823 -4.564551 24.969139 4.712070 0.698159 -6.842101 1.991049 -0.982732 7.670379 2.776415 1.905972 -14.460119 9.091443 1.025431 15.527278 -16.756181 14.011542 -9.531477 18.842641 4.107925 -0.425548 -88.786101 -21.635443 25.212676 39.327190 -70.487548 -5.862826 -5.274792 -31.063946 6.031353 -0.000000 0.000000 0.000000 0.000000 0.000000 0.000000 0.000000 0.000000 0.000000 -6.802835 1.491065 5.364786 65.381761 30.850671 7.745569 9.565363 70.450158 27.818018 -1.383702 16.311115 2.080274 0.000000 -0.000000 0.000000 0.000000 0.000000 -0.000000 0.000000 0.000000 0.000000 
6.220886 14.846742 28.381982 -174.259010 32.670274 -171.196786 3.723137 -6.320163 -8.741903 -14.018682 -2.501875 -36.052791 -0.927212 22.970204 78.238146 -7.895419 -1.565125 8.634489 5.076800 2.454922 -8.824173 8.716557 17.681814 -11.659188 -9.573768 -24.744805 -7.364598 -4.610658 -24.550935 44.902489 -6.298283 17.415210 -26.525171 28.062553 -8.973044 -30.582214 -13.095839 -4.568963 25.193154 4.668675 0.795643 -6.922097 1.894060 -0.747392 7.414179 2.609777 1.841944 -14.263989 9.211107 0.928953 15.626700 -16.314874 13.718016 -9.502168 18.366122 4.003093 -0.760604 -87.968502 -19.973306 25.286511 40.605763 -69.969386 -7.002666 -4.764103 -30.621621 5.791481 0.000000 -0.000000 0.000000 -0.000000 -0.000000 0.000000 0.000000 -0.000000 0.000000 -6.886552 1.731850 5.543601 64.382112 32.108671 7.929676 9.420831 70.461697 27.449898 -1.997297 15.630248 1.897015 0.000000 -0.000000 0.000000 -0.000000 0.000000 -0.000000 0.000000 0.000000 -0.000000 
6.359820 14.850240 28.282733 -174.747038 31.855568 -171.415172 3.612912 -6.277373 -8.760253 -14.651077 -2.202657 -37.439523 -1.505814 23.262762 76.767626 -7.114064 -1.995686 7.915451 7.116200 0.692772 -10.760896 8.592236 17.792192 -11.762358 -9.760924 -24.215005 -5.866334 -4.678964 -25.563630 44.113081 -6.626119 16.761285 -26.780104 28.358377 -7.865094 -31.483293 -13.131405 -4.621683 25.431594 4.564019 1.028907 -6.967608 1.427616 -0.364811 7.364199 2.775889 1.704023 -14.345587 9.281366 0.742418 15.560045 -16.399850 13.340342 -8.975519 18.440190 3.845971 -0.992595 -87.511658 -18.671705 24.918030 40.759436 -70.175839 -6.680575 -5.443795 -31.401717 6.150415 -0.000000 0.000000 0.000000 -0.000000 -0.000000 0.000000 0.000000 -0.000000 0.000000 -6.740501 1.422808 5.858633 63.989545 33.410824 7.786960 8.863114 70.871386 27.546161 -1.986714 16.179259 1.967128 0.000000 -0.000000 0.000000 0.000000 -0.000000 -0.000000 -0.000000 0.000000 -0.000000 
6.496006 14.864159 28.179880 -175.512123 31.058281 -171.545243 3.489273 -6.430164 -8.805181 -15.594283 -1.692165 -38.999980 -3.538910 22.947439 74.898756 -4.611631 -1.453446 6.505155 7.655793 0.527237 -11.430190 8.421144 17.979320 -11.914730 -10.038516 -24.406563 -4.826195 -5.061359 -25.898440 43.544740 -6.742704 16.387781 -26.658991 30.075434 -2.170502 -36.482092 -13.330682 -4.723268 25.605810 4.501330 0.935736 -7.059740 0.986795 -0.224795 7.012625 2.885141 1.595059 -14.156140 9.280340 0.610577 15.471107 -16.248010 12.861458 -9.340009 18.450284 4.013162 -1.083010 -87.143486 -17.093450 24.726685 41.669600 -70.334215 -7.230549 -6.263856 -32.016843 6.529639 -0.000000 0.000000 -0.000000 0.000000 -0.000000 -0.000000 -0.000000 -0.000000 -0.000000 -6.791488 1.860272 5.952465 63.895128 34.149358 7.226547 8.686138 71.421375 27.334159 -4.159812 15.382017 1.538327 0.000000 -0.000000 0.000000 0.000000 0.000000 0.000000 0.000000 0.000000 0.000000 
6.634309 14.894249 28.059760 -176.036248 30.254116 -171.387060 3.126489 -6.278246 -8.869761 -15.989507 -1.800812 -40.257051 -4.159532 23.282805 72.670938 -3.663582 -1.743002 6.098356 7.079800 1.323188 -11.062287 8.712865 17.691100 -11.575511 -10.165242 -23.912743 -4.512776 -5.231790 -26.211808 42.984792 -6.286765 15.809972 -26.423888 29.904753 -1.915008 -36.447229 -13.253208 -4.667826 25.570989 4.487888 1.019663 -7.212649 0.569505 -0.074346 6.867843 2.929023 1.560983 -14.169135 9.349024 0.510736 15.457626 -15.976584 12.675959 -8.462240 18.059377 3.729320 -1.746609 -86.549093 -15.225276 25.868959 45.218351 -69.411919 -9.599186 -4.047486 -31.378734 5.721876 -0.000000 0.000000 -0.000000 0.000000 0.000000 0.000000 -0.000000 0.000000 -0.000000 -6.494670 1.858748 6.140390 63.401185 35.062719 6.725145 8.000688 71.925457 27.004461 -4.046940 15.450527 1.562667 0.000000 -0.000000 0.000000 0.000000 0.000000 0.000000 0.000000 0.000000 -0.000000 
6.776051 14.924114 27.927177 -176.603924 29.647878 -171.212159 2.658214 -5.890620 -8.764320 -16.463465 -2.009076 -41.563131 -4.831347 23.559420 70.307251 -2.676477 -1.975914 6.007596 7.910317 0.624462 -11.842114 9.056556 17.163106 -11.092542 -10.198077 -22.964424 -4.427544 -5.282083 -26.414097 42.482258 -5.591680 15.077642 -26.242963 29.875632 -1.343352 -36.749958 -13.267297 -4.648613 25.323362 4.493899 1.126431 -7.332836 -0.274250 0.215808 6.599808 3.366628 1.438551 -13.962351 9.398977 0.314135 15.506791 -16.080481 12.241071 -8.888611 17.890765 3.454469 -2.095046 -85.806910 -13.435010 26.775601 48.015514 -68.581420 -12.961693 -4.421189 -29.882028 5.548474 0.000000 0.000000 0.000000 -0.000000 0.000000 -0.000000 0.000000 0.000000 0.000000 -5.706841 1.987828 6.500005 62.736515 35.906931 5.996988 7.808881 72.359433 27.400576 -2.922048 16.096691 1.808879 0.000000 -0.000000 0.000000 -0.000000 -0.000000 -0.000000 0.000000 -0.000000 0.000000 
6.913063 14.963574 27.796246 -176.978881 28.893176 -171.294255 2.516375 -5.804807 -8.739003 -16.916120 -2.116064 -42.195559 -5.319107 23.732993 67.668338 -2.331195 -2.632668 5.120839 7.102402 1.844018 -11.390378 8.929250 17.257693 -11.215659 -9.938252 -22.776414 -3.011743 -5.144163 -26.362034 41.338350 -4.102563 14.422494 -25.084417 30.013640 0.839462 -38.205140 -13.289234 -4.717296 25.652491 4.429168 1.331783 -7.430914 -0.561258 0.484522 6.275695 3.391307 1.357326 -13.840080 9.446969 0.205263 15.404945 -15.845911 11.884703 -8.588867 17.783843 3.371808 -2.164870 -85.425694 -12.048273 26.390805 47.901178 -69.140467 -12.537004 -5.386198 -30.603873 5.972481 0.000000 -0.000000 0.000000 0.000000 0.000000 -0.000000 0.000000 -0.000000 0.000000 -5.700407 2.155745 6.460765 62.551262 36.244676 5.579964 6.989320 72.940418 26.704406 -4.583570 15.341387 1.470127 0.000000 -0.000000 0.000000 -0.000000 0.000000 0.000000 0.000000 -0.000000 0.000000 
